<?xml version="1.0" encoding="UTF-8" standalone="no"?>
<svg
   xmlns:dc="http://purl.org/dc/elements/1.1/"
   xmlns:cc="http://creativecommons.org/ns#"
   xmlns:rdf="http://www.w3.org/1999/02/22-rdf-syntax-ns#"
   xmlns:svg="http://www.w3.org/2000/svg"
   xmlns="http://www.w3.org/2000/svg"
   id="svg4548"
   version="1.1"
   viewBox="0 0 66.145832 66.145835"
   height="250"
   width="250">
  <defs
     id="defs4542" />
  <metadata
     id="metadata4545">
    <rdf:RDF>
      <cc:Work
         rdf:about="">
        <dc:format>image/svg+xml</dc:format>
        <dc:type
           rdf:resource="http://purl.org/dc/dcmitype/StillImage" />
        <dc:title></dc:title>
      </cc:Work>
    </rdf:RDF>
  </metadata>
  <g
     transform="translate(0,-230.85415)"
     id="layer1">
    <path
       d="m 15.313775,271.54459 17.071756,-13.35749 17.681461,12.22069 m -28.046451,25.00983 11.27955,-18.47317 10.669848,17.33634 m -10.974697,-44.90399 0.304849,27.56765 m 8.569071,-35.80952 a 8.4166411,7.8465123 0 0 1 -8.416643,7.84651 8.4166411,7.8465123 0 0 1 -8.416641,-7.84651 8.4166411,7.8465123 0 0 1 8.416641,-7.84652 8.4166411,7.8465123 0 0 1 8.416643,7.84652 z"
       style="fill:none;stroke:#00001d;stroke-width:2.72560334;stroke-linecap:butt;stroke-linejoin:miter;stroke-miterlimit:4;stroke-dasharray:none;stroke-opacity:1"
       id="path4524" />
    <path
       d="m 32.329972,238.41248 -4.417917,4.44695 z m -4.598486,0.25798 4.681149,4.21632"
       style="fill:none;stroke:#760e08;stroke-width:1.31411493;stroke-linecap:butt;stroke-linejoin:miter;stroke-miterlimit:4;stroke-dasharray:none;stroke-opacity:1"
       id="path4532-8" />
    <path
       d="m 38.354638,238.43182 -4.417917,4.44695 z m -4.598486,0.25798 4.681149,4.21632"
       style="fill:none;stroke:#760e08;stroke-width:1.31411493;stroke-linecap:butt;stroke-linejoin:miter;stroke-miterlimit:4;stroke-dasharray:none;stroke-opacity:1"
       id="path4532-8-6" />
  </g>
</svg>
